<svg width="9" height="9" viewBox="0 0 9 9" fill="none" xmlns="http://www.w3.org/2000/svg">
<path fill-rule="evenodd" clip-rule="evenodd" d="M2.05706 0.46305C2.17313 0.182761 2.44663 0 2.75 0H8.25C8.66411 0 8.99985 0.33562 9 0.749727L9.002 6.24973C9.00211 6.5531 8.81945 6.82666 8.5392 6.94283C8.25895 7.059 7.93632 6.9949 7.72177 6.78043L5.5006 4.56006L1.28033 8.78033C0.987437 9.07322 0.512563 9.07322 0.21967 8.78033C-0.0732233 8.48744 -0.0732233 8.01256 0.21967 7.71967L4.43974 3.4996L2.21977 1.28043C2.00521 1.06595 1.94099 0.74334 2.05706 0.46305ZM6.56126 3.4994L7.50134 4.43915L7.50066 2.56L6.56126 3.4994ZM6.43934 1.5L5.5004 2.43894L4.56113 1.5H6.43934Z" fill="black"/>
</svg>
