<svg width="32" height="32" viewBox="0 0 32 32" fill="none" xmlns="http://www.w3.org/2000/svg">
<g id="Frame">
<path id="Vector" fill-rule="evenodd" clip-rule="evenodd" d="M0.156584 11.9809L6.56858 3.27685C6.63416 3.18804 6.71742 3.11376 6.8131 3.05868C6.90879 3.00361 7.01484 2.96894 7.12458 2.95685L15.6886 2.00485C15.7471 1.99838 15.8061 1.99838 15.8646 2.00485L24.4286 2.95585C24.5383 2.96794 24.6444 3.00261 24.7401 3.05768C24.8358 3.11276 24.919 3.18704 24.9846 3.27585L31.3976 11.9809C31.5049 12.127 31.5593 12.3052 31.5521 12.4864C31.5448 12.6675 31.4762 12.8408 31.3576 12.9779L16.2316 30.4699C16.1753 30.535 16.1056 30.5873 16.0272 30.6232C15.9489 30.659 15.8637 30.6776 15.7776 30.6776C15.6914 30.6776 15.6063 30.659 15.528 30.6232C15.4496 30.5873 15.3799 30.535 15.3236 30.4699L0.194584 12.9779C0.0760895 12.8407 0.00769721 12.6673 0.000611701 12.4862C-0.00647381 12.305 0.0481676 12.1269 0.155584 11.9809H0.156584ZM17.9826 4.57785L24.0296 10.2899C24.0882 10.3454 24.1622 10.3819 24.2419 10.3945C24.3216 10.4072 24.4033 10.3954 24.4762 10.3608C24.5492 10.3262 24.6099 10.2703 24.6505 10.2006C24.691 10.1308 24.7096 10.0504 24.7036 9.96986L24.4136 5.91585C24.4095 5.86626 24.4241 5.81693 24.4544 5.7775C24.4848 5.73807 24.5288 5.71137 24.5778 5.70262C24.6267 5.69387 24.6772 5.7037 24.7194 5.73019C24.7615 5.75667 24.7922 5.79792 24.8056 5.84585L26.1316 10.4879C26.1762 10.6442 26.2583 10.7872 26.3707 10.9047C26.4831 11.0221 26.6224 11.1104 26.7766 11.1619L29.6066 12.1049C29.6517 12.1197 29.6901 12.1501 29.7149 12.1907C29.7396 12.2313 29.7491 12.2793 29.7417 12.3263C29.7342 12.3732 29.7103 12.4159 29.6742 12.4468C29.638 12.4777 29.5921 12.4947 29.5446 12.4949H26.8246C26.6565 12.495 26.4911 12.5374 26.3438 12.6184C26.1964 12.6993 26.0719 12.816 25.9816 12.9579L18.5676 24.6079C18.5261 24.6714 18.4621 24.7169 18.3884 24.7351C18.3147 24.7533 18.2368 24.7429 18.1705 24.706C18.1042 24.6691 18.0543 24.6084 18.0309 24.5362C18.0076 24.464 18.0124 24.3856 18.0446 24.3169L23.3586 13.3569C23.403 13.2654 23.4234 13.1641 23.4179 13.0625C23.4125 12.961 23.3813 12.8625 23.3273 12.7763C23.2733 12.6901 23.1983 12.6191 23.1093 12.5699C23.0203 12.5206 22.9203 12.4948 22.8186 12.4949H8.73458C8.63289 12.4948 8.53285 12.5206 8.44387 12.5699C8.35489 12.6191 8.27988 12.6901 8.22589 12.7763C8.1719 12.8625 8.14071 12.961 8.13523 13.0625C8.12975 13.1641 8.15018 13.2654 8.19458 13.3569L13.5086 24.3169C13.542 24.3857 13.5478 24.4648 13.5248 24.5378C13.5018 24.6108 13.4517 24.6723 13.3849 24.7096C13.318 24.7469 13.2394 24.7573 13.1652 24.7386C13.091 24.7198 13.0267 24.6734 12.9856 24.6089L5.57158 12.9589C5.48134 12.8167 5.35667 12.6997 5.20913 12.6186C5.06158 12.5374 4.89595 12.4949 4.72758 12.4949H1.92458C1.87706 12.4947 1.83113 12.4777 1.79502 12.4468C1.7589 12.4159 1.73497 12.3732 1.72751 12.3263C1.72005 12.2793 1.72955 12.2313 1.7543 12.1907C1.77905 12.1501 1.81744 12.1197 1.86258 12.1049L4.77058 11.1599C4.92642 11.1091 5.06739 11.0208 5.18108 10.9027C5.29477 10.7847 5.37771 10.6405 5.42258 10.4829L6.74758 5.84585C6.76093 5.79792 6.79168 5.75667 6.83381 5.73019C6.87593 5.7037 6.92642 5.69387 6.97541 5.70262C7.0244 5.71137 7.06837 5.73807 7.09873 5.7775C7.12908 5.81693 7.14365 5.86626 7.13958 5.91585L6.84958 9.96986C6.84361 10.0504 6.86212 10.1308 6.9027 10.2006C6.94328 10.2703 7.00401 10.3262 7.07693 10.3608C7.14985 10.3954 7.23153 10.4072 7.31125 10.3945C7.39097 10.3819 7.46499 10.3454 7.52358 10.2899L13.5706 4.57785C13.6071 4.54096 13.6566 4.51972 13.7085 4.51863C13.7604 4.51754 13.8107 4.53669 13.8488 4.57201C13.8868 4.60734 13.9096 4.65608 13.9124 4.70793C13.9152 4.75978 13.8977 4.81068 13.8636 4.84985L9.80658 9.84285C9.759 9.90151 9.729 9.97243 9.72005 10.0474C9.71109 10.1224 9.72355 10.1984 9.75598 10.2666C9.78841 10.3348 9.83948 10.3925 9.9033 10.4328C9.96711 10.4732 10.0411 10.4947 10.1166 10.4949H21.4366C21.5121 10.4947 21.5861 10.4732 21.6499 10.4328C21.7137 10.3925 21.7648 10.3348 21.7972 10.2666C21.8296 10.1984 21.8421 10.1224 21.8331 10.0474C21.8242 9.97243 21.7942 9.90151 21.7466 9.84285L17.6896 4.84985C17.6555 4.81068 17.638 4.75978 17.6408 4.70793C17.6435 4.65608 17.6664 4.60734 17.7044 4.57201C17.7425 4.53669 17.7928 4.51754 17.8447 4.51863C17.8966 4.51972 17.946 4.54096 17.9826 4.57785Z" fill="black"/>
</g>
</svg>
